<svg xmlns="http://www.w3.org/2000/svg" id="canvas" viewBox="225.901 164.134 884.241 241.522">

  <style>
    path {
      stroke-dasharray: 2000;
      stroke-dashoffset: 2000;
      -webkit-animation: dash 5s ease infinite;
      animation: dash 5s ease infinite;
    }
    
    @-webkit-keyframes dash {
      to {
        stroke-dashoffset: 0;
      }
    }
    @keyframes dash {
      to {
        stroke-dashoffset: 0;
      }
    }
  </style>
  
  <g>
    <path stroke-linecap="null" stroke-linejoin="null" stroke-dasharray="null" stroke-width="5" stroke="#000000" fill="none" d="M 229.59,203.36 C 229.38 204.37, 229.52 205.36, 230.27 207.57 C 231.02 209.77, 231.86 211.07, 233.34 214.38 C 234.82 217.70, 235.75 220.10, 237.68 224.14 C 239.61 228.18, 240.79 230.54, 242.99 234.57 C 245.19 238.60, 245.98 241.13, 248.68 244.31 C 251.38 247.49, 253.04 248.76, 256.50 250.47 C 259.96 252.19, 262.01 252.96, 265.97 252.90 C 269.94 252.85, 272.27 252.11, 276.34 250.21 C 280.41 248.31, 282.50 246.52, 286.32 243.40 C 290.15 240.28, 292.15 238.19, 295.45 234.60 C 298.75 231.01, 300.71 228.64, 302.84 225.44 C 304.97 222.25, 305.69 219.98, 306.11 218.64 C 306.53 217.29, 305.53 216.66, 304.95 218.71 C 304.36 220.76, 304.35 223.06, 303.18 228.89 C 302.02 234.72, 301.23 239.00, 299.11 247.86 C 297.00 256.71, 295.62 262.48, 292.61 273.17 C 289.60 283.86, 287.80 290.03, 284.06 301.30 C 280.31 312.57, 278.15 318.71, 273.88 329.52 C 269.62 340.33, 267.24 345.96, 262.74 355.34 C 258.24 364.72, 255.72 369.28, 251.38 376.42 C 247.05 383.55, 244.64 386.59, 241.04 391.03 C 237.44 395.47, 235.73 396.51, 233.38 398.63 C 231.04 400.74, 230.03 400.82, 229.33 401.61 C 228.63 402.40, 228.77 402.83, 229.88 402.59 C 231.00 402.36, 232.38 402.50, 234.93 400.43 C 237.47 398.36, 239.05 396.91, 242.61 392.27 C 246.17 387.62, 248.45 384.48, 252.72 377.21 C 256.98 369.94, 259.47 365.36, 263.94 355.91 C 268.40 346.47, 270.78 340.82, 275.05 329.98 C 279.32 319.14, 281.49 312.99, 285.29 301.71 C 289.09 290.43, 290.89 284.26, 294.04 273.59 C 297.19 262.91, 298.69 257.17, 301.04 248.34 C 303.39 239.51, 304.45 235.33, 305.78 229.44 C 307.11 223.56, 307.94 221.37, 307.69 218.92 C 307.45 216.47, 306.15 216.35, 304.55 217.20 C 302.95 218.06, 301.99 220.15, 299.69 223.20 C 297.38 226.25, 296.10 228.89, 293.03 232.44 C 289.96 235.99, 287.94 238.00, 284.33 240.95 C 280.71 243.91, 278.63 245.51, 274.95 247.22 C 271.27 248.93, 269.32 249.47, 265.93 249.51 C 262.54 249.55, 260.95 248.90, 258.02 247.43 C 255.08 245.96, 253.65 245.05, 251.26 242.15 C 248.86 239.26, 248.06 236.87, 246.04 232.95 C 244.03 229.03, 242.90 226.64, 241.20 222.57 C 239.49 218.49, 238.91 215.96, 237.52 212.59 C 236.12 209.21, 235.45 207.72, 234.21 205.71 C 232.97 203.70, 232.25 203.00, 231.32 202.53 C 230.40 202.06, 229.80 202.36, 229.59 203.36" />
    <path stroke-linecap="null" stroke-linejoin="null" stroke-dasharray="null" stroke-width="5" stroke="#000000" fill="none" d="M 344.10,260.06 C 345.23 259.83, 346.40 259.10, 348.30 257.48 C 350.19 255.86, 351.10 254.54, 353.57 251.94 C 356.04 249.35, 357.85 247.66, 360.64 244.50 C 363.43 241.33, 364.92 239.40, 367.52 236.11 C 370.13 232.82, 371.73 231.07, 373.67 228.03 C 375.61 224.98, 376.81 223.40, 377.20 220.87 C 377.59 218.35, 377.31 216.64, 375.62 215.42 C 373.93 214.20, 372.01 213.60, 368.76 214.77 C 365.50 215.93, 363.29 217.83, 359.35 221.23 C 355.40 224.64, 352.85 227.03, 349.02 231.80 C 345.18 236.58, 342.73 239.66, 340.17 245.11 C 337.62 250.55, 336.58 253.96, 336.23 259.03 C 335.89 264.11, 336.56 266.72, 338.44 270.47 C 340.32 274.23, 341.99 275.86, 345.63 277.81 C 349.27 279.76, 351.79 280.21, 356.66 280.22 C 361.52 280.23, 364.41 279.61, 369.96 277.85 C 375.51 276.08, 378.58 274.51, 384.40 271.41 C 390.22 268.31, 393.43 266.23, 399.06 262.33 C 404.68 258.44, 407.66 255.92, 412.52 251.93 C 417.39 247.94, 420.02 245.36, 423.36 242.39 C 426.71 239.41, 427.92 238.09, 429.24 237.07 C 430.56 236.06, 430.15 236.12, 429.97 237.31 C 429.79 238.50, 429.07 240.06, 428.32 243.02 C 427.57 245.97, 426.81 248.48, 426.23 252.11 C 425.65 255.73, 425.13 258.16, 425.43 261.13 C 425.72 264.10, 426.03 265.62, 427.70 266.96 C 429.36 268.31, 430.82 268.62, 433.76 267.86 C 436.71 267.11, 438.39 265.67, 442.43 263.19 C 446.47 260.70, 449.13 258.48, 453.98 255.42 C 458.83 252.37, 461.98 250.35, 466.68 247.92 C 471.38 245.50, 473.91 244.21, 477.48 243.30 C 481.05 242.39, 482.45 242.51, 484.52 243.38 C 486.59 244.24, 486.93 245.18, 487.84 247.62 C 488.75 250.07, 488.69 252.25, 489.08 255.60 C 489.47 258.96, 489.37 261.36, 489.79 264.39 C 490.20 267.41, 490.58 268.78, 491.16 270.72 C 491.74 272.65, 492.12 273.42, 492.70 274.06 C 493.28 274.69, 493.65 274.63, 494.05 273.88 C 494.46 273.13, 494.55 272.34, 494.70 270.33 C 494.86 268.32, 495.06 266.92, 494.82 263.84 C 494.57 260.76, 494.18 258.49, 493.49 254.92 C 492.80 251.35, 492.93 248.92, 491.38 246.00 C 489.83 243.08, 488.68 241.46, 485.75 240.31 C 482.82 239.17, 480.82 239.29, 476.73 240.28 C 472.65 241.28, 470.21 242.80, 465.33 245.29 C 460.45 247.78, 457.29 249.79, 452.34 252.75 C 447.39 255.70, 444.57 257.82, 440.59 260.07 C 436.61 262.33, 434.70 262.97, 432.44 264.00 C 430.18 265.03, 429.69 265.77, 429.27 265.23 C 428.85 264.69, 429.89 263.73, 430.34 261.28 C 430.80 258.83, 431.00 256.48, 431.56 252.96 C 432.12 249.44, 433.04 246.95, 433.16 243.70 C 433.29 240.44, 433.20 238.46, 432.19 236.69 C 431.19 234.93, 430.30 234.17, 428.15 234.87 C 425.99 235.57, 424.86 237.16, 421.43 240.21 C 418.00 243.25, 415.72 246.04, 410.99 250.10 C 406.26 254.15, 403.32 256.65, 397.78 260.49 C 392.24 264.34, 389.02 266.36, 383.30 269.33 C 377.58 272.30, 374.51 273.74, 369.18 275.34 C 363.86 276.94, 361.10 277.35, 356.67 277.32 C 352.24 277.29, 350.16 276.80, 347.02 275.17 C 343.88 273.55, 342.61 272.38, 340.99 269.19 C 339.37 266.00, 338.60 263.81, 338.91 259.21 C 339.22 254.62, 340.08 251.35, 342.54 246.23 C 345.00 241.11, 347.42 238.09, 351.22 233.62 C 355.02 229.15, 357.70 226.89, 361.52 223.87 C 365.35 220.85, 367.77 219.83, 370.35 218.53 C 372.92 217.23, 373.72 217.08, 374.40 217.35 C 375.08 217.62, 374.58 218.18, 373.75 219.87 C 372.91 221.56, 372.08 223.03, 370.25 225.81 C 368.41 228.59, 367.08 230.59, 364.57 233.79 C 362.07 236.99, 360.55 238.81, 357.70 241.81 C 354.85 244.81, 352.86 246.26, 350.33 248.78 C 347.80 251.30, 346.60 252.42, 345.06 254.39 C 343.52 256.36, 342.82 257.50, 342.63 258.64 C 342.44 259.77, 342.96 260.29, 344.10 260.06" />
    <path stroke-linecap="null" stroke-linejoin="null" stroke-dasharray="null" stroke-width="5" stroke="#000000" fill="none" d="M 568.63,240.53 C 568.41 239.70, 568.11 238.76, 566.47 237.90 C 564.83 237.04, 563.52 236.06, 560.42 236.21 C 557.32 236.36, 554.86 236.96, 550.95 238.63 C 547.05 240.31, 544.75 241.75, 540.89 244.60 C 537.03 247.44, 534.66 249.27, 531.64 252.87 C 528.63 256.46, 526.98 258.67, 525.82 262.56 C 524.66 266.45, 524.61 268.80, 525.86 272.29 C 527.10 275.79, 528.45 277.83, 532.05 280.05 C 535.65 282.27, 538.90 282.62, 543.84 283.39 C 548.79 284.16, 552.18 284.12, 556.76 283.91 C 561.34 283.70, 564.81 283.09, 566.76 282.34 C 568.72 281.60, 568.55 280.53, 566.54 280.20 C 564.52 279.87, 561.13 280.72, 556.69 280.70 C 552.25 280.68, 548.94 280.79, 544.35 280.09 C 539.76 279.39, 536.82 279.00, 533.75 277.22 C 530.68 275.44, 529.95 273.92, 529.01 271.19 C 528.07 268.45, 528.00 266.78, 529.04 263.55 C 530.07 260.32, 531.41 258.25, 534.19 255.04 C 536.98 251.83, 539.30 250.00, 542.96 247.52 C 546.62 245.04, 548.91 243.79, 552.47 242.64 C 556.03 241.50, 558.19 241.98, 560.76 241.78 C 563.33 241.58, 563.96 241.60, 565.32 241.65 C 566.69 241.71, 566.92 242.28, 567.58 242.05 C 568.24 241.83, 568.85 241.36, 568.63 240.53" />
    <path stroke-linecap="null" stroke-linejoin="null" stroke-dasharray="null" stroke-width="5" stroke="#000000" fill="none" d="M 639.91,167.71 C 639.22 168.53, 638.88 169.19, 638.23 172.04 C 637.58 174.88, 637.44 176.97, 636.67 181.94 C 635.89 186.90, 635.58 190.23, 634.35 196.85 C 633.13 203.47, 632.16 207.79, 630.55 215.04 C 628.93 222.28, 627.89 226.50, 626.28 233.07 C 624.67 239.65, 623.56 242.81, 622.49 247.91 C 621.42 253.01, 620.50 255.18, 620.94 258.57 C 621.38 261.95, 622.37 263.51, 624.70 264.84 C 627.02 266.17, 629.10 266.10, 632.57 265.22 C 636.04 264.33, 638.11 262.69, 642.05 260.43 C 645.99 258.18, 648.45 256.31, 652.26 253.93 C 656.08 251.55, 658.20 250.06, 661.14 248.52 C 664.07 246.97, 665.15 246.37, 666.94 246.22 C 668.73 246.06, 669.19 246.48, 670.10 247.73 C 671.01 248.99, 670.88 250.22, 671.51 252.51 C 672.13 254.79, 672.12 256.39, 673.22 259.15 C 674.32 261.91, 675.08 263.59, 677.00 266.29 C 678.92 268.99, 680.03 270.60, 682.81 272.65 C 685.59 274.69, 687.16 275.61, 690.89 276.52 C 694.63 277.44, 696.84 277.60, 701.47 277.22 C 706.09 276.84, 708.79 276.40, 714.02 274.64 C 719.25 272.88, 722.21 271.41, 727.62 268.41 C 733.02 265.41, 736.12 263.45, 741.04 259.63 C 745.95 255.80, 748.40 253.40, 752.18 249.29 C 755.96 245.18, 757.86 242.90, 759.93 239.08 C 762.01 235.26, 762.81 233.13, 762.57 230.18 C 762.33 227.23, 761.29 225.57, 758.75 224.33 C 756.21 223.10, 753.79 222.94, 749.88 223.99 C 745.98 225.04, 743.38 226.55, 739.21 229.58 C 735.04 232.61, 732.47 234.80, 729.05 239.15 C 725.63 243.50, 723.64 246.39, 722.10 251.34 C 720.56 256.28, 720.32 259.29, 721.34 263.89 C 722.36 268.50, 723.76 270.92, 727.20 274.36 C 730.64 277.80, 733.34 279.29, 738.54 281.08 C 743.73 282.86, 747.00 283.27, 753.18 283.29 C 759.36 283.30, 762.85 282.83, 769.42 281.15 C 775.99 279.47, 779.49 278.13, 786.03 274.87 C 792.58 271.60, 795.92 269.41, 802.14 264.84 C 808.37 260.27, 811.60 257.48, 817.16 252.00 C 822.71 246.52, 825.35 243.22, 829.92 237.45 C 834.48 231.68, 836.60 228.41, 840.00 223.15 C 843.39 217.89, 844.70 215.34, 846.91 211.17 C 849.11 207.00, 850.02 205.19, 851.01 202.31 C 852.00 199.43, 852.10 198.05, 851.84 196.76 C 851.58 195.47, 850.70 195.09, 849.72 195.85 C 848.75 196.61, 847.89 197.51, 846.95 200.57 C 846.01 203.63, 845.95 206.01, 845.04 211.15 C 844.14 216.29, 843.53 219.92, 842.44 226.28 C 841.36 232.64, 840.57 236.44, 839.63 242.95 C 838.68 249.46, 838.43 252.98, 837.74 258.85 C 837.05 264.71, 836.52 267.49, 836.19 272.27 C 835.87 277.06, 835.91 279.32, 836.10 282.79 C 836.29 286.26, 836.53 287.65, 837.14 289.63 C 837.76 291.60, 838.54 292.15, 839.17 292.67 C 839.81 293.19, 840.14 292.96, 840.30 292.25 C 840.47 291.53, 840.14 291.01, 839.99 289.07 C 839.85 287.14, 839.78 285.92, 839.56 282.58 C 839.35 279.25, 838.80 277.09, 838.92 272.40 C 839.03 267.71, 839.51 264.93, 840.12 259.11 C 840.74 253.29, 841.00 249.77, 841.99 243.30 C 842.98 236.84, 843.79 233.06, 845.10 226.78 C 846.40 220.50, 847.25 216.91, 848.53 211.90 C 849.81 206.88, 850.88 204.79, 851.48 201.71 C 852.09 198.63, 851.88 197.58, 851.55 196.49 C 851.23 195.40, 850.67 195.36, 849.86 196.27 C 849.05 197.18, 848.59 198.29, 847.52 201.04 C 846.46 203.79, 846.40 205.82, 844.53 210.01 C 842.66 214.20, 841.39 216.75, 838.16 221.99 C 834.93 227.24, 832.85 230.52, 828.39 236.25 C 823.92 241.99, 821.32 245.26, 815.85 250.67 C 810.37 256.09, 807.16 258.83, 801.02 263.31 C 794.88 267.79, 791.57 269.93, 785.15 273.08 C 778.72 276.22, 775.29 277.48, 768.90 279.04 C 762.51 280.60, 759.10 280.97, 753.20 280.88 C 747.30 280.80, 744.21 280.30, 739.39 278.61 C 734.58 276.92, 732.19 275.50, 729.12 272.44 C 726.05 269.38, 724.90 267.35, 724.03 263.30 C 723.16 259.26, 723.30 256.65, 724.77 252.19 C 726.24 247.73, 728.09 244.99, 731.36 241.01 C 734.64 237.04, 737.24 235.00, 741.15 232.31 C 745.06 229.62, 747.63 228.58, 750.91 227.56 C 754.19 226.53, 755.84 226.66, 757.54 227.21 C 759.24 227.75, 759.45 228.21, 759.40 230.30 C 759.35 232.39, 759.10 234.20, 757.27 237.65 C 755.44 241.10, 753.80 243.54, 750.26 247.55 C 746.71 251.56, 744.30 253.97, 739.53 257.70 C 734.76 261.42, 731.67 263.34, 726.40 266.19 C 721.12 269.04, 718.18 270.39, 713.15 271.95 C 708.12 273.51, 705.52 273.79, 701.26 273.98 C 697.00 274.17, 695.03 273.84, 691.87 272.90 C 688.71 271.97, 687.63 271.14, 685.45 269.29 C 683.28 267.44, 682.45 266.06, 680.98 263.65 C 679.52 261.24, 679.11 259.78, 678.11 257.22 C 677.12 254.66, 677.11 253.23, 676.01 250.85 C 674.91 248.46, 674.46 246.92, 672.63 245.31 C 670.80 243.71, 669.50 242.86, 666.86 242.81 C 664.21 242.76, 662.72 243.47, 659.41 245.07 C 656.09 246.66, 654.14 248.37, 650.30 250.78 C 646.45 253.20, 643.93 254.98, 640.16 257.14 C 636.40 259.29, 634.29 260.51, 631.45 261.57 C 628.61 262.62, 627.46 263.07, 625.96 262.41 C 624.47 261.75, 624.16 261.06, 623.96 258.25 C 623.76 255.45, 624.06 253.32, 624.96 248.39 C 625.85 243.46, 626.89 240.16, 628.44 233.59 C 629.99 227.02, 631.03 222.78, 632.72 215.53 C 634.41 208.29, 635.45 203.96, 636.88 197.36 C 638.31 190.76, 638.81 187.46, 639.87 182.53 C 640.93 177.60, 641.83 175.65, 642.19 172.73 C 642.55 169.81, 642.12 168.94, 641.67 167.93 C 641.21 166.93, 640.60 166.89, 639.91 167.71" />
    <path stroke-linecap="null" stroke-linejoin="null" stroke-dasharray="null" stroke-width="5" stroke="#000000" fill="none" d="M 905.34,201.50 C 906.37 201.48, 907.19 200.74, 909.22 199.82 C 911.24 198.91, 912.31 198.05, 915.45 196.93 C 918.59 195.80, 920.80 194.74, 924.91 194.20 C 929.03 193.67, 931.58 193.64, 936.03 194.25 C 940.49 194.85, 943.22 195.37, 947.19 197.24 C 951.16 199.10, 953.45 200.33, 955.89 203.56 C 958.33 206.80, 959.37 208.80, 959.37 213.42 C 959.37 218.04, 958.57 220.90, 955.87 226.65 C 953.18 232.41, 950.77 235.88, 945.89 242.20 C 941.02 248.52, 937.35 252.30, 931.49 258.25 C 925.63 264.20, 921.75 267.08, 916.60 271.93 C 911.45 276.77, 908.78 278.73, 905.73 282.47 C 902.68 286.22, 901.48 287.81, 901.36 290.64 C 901.24 293.47, 902.28 294.98, 905.14 296.61 C 907.99 298.24, 910.53 298.40, 915.65 298.78 C 920.77 299.16, 924.05 299.02, 930.74 298.53 C 937.42 298.04, 941.52 297.52, 949.07 296.32 C 956.62 295.11, 961.06 294.23, 968.48 292.50 C 975.90 290.77, 979.82 289.77, 986.17 287.67 C 992.51 285.58, 995.68 284.21, 1000.21 282.04 C 1004.74 279.88, 1006.46 278.82, 1008.81 276.85 C 1011.15 274.89, 1011.51 273.33, 1011.94 272.23 C 1012.37 271.13, 1011.95 270.89, 1010.97 271.36 C 1010.00 271.83, 1009.44 272.91, 1007.06 274.59 C 1004.68 276.27, 1003.40 277.55, 999.09 279.77 C 994.77 281.98, 991.70 283.50, 985.48 285.66 C 979.27 287.81, 975.37 288.84, 968.02 290.55 C 960.68 292.26, 956.24 293.13, 948.75 294.22 C 941.26 295.31, 937.15 295.70, 930.58 296.02 C 924.01 296.33, 920.71 296.24, 915.90 295.78 C 911.10 295.33, 908.97 294.75, 906.56 293.75 C 904.15 292.76, 903.63 292.76, 903.84 290.81 C 904.05 288.86, 904.78 287.49, 907.62 284.01 C 910.45 280.53, 912.97 278.30, 918.02 273.41 C 923.06 268.53, 926.97 265.59, 932.86 259.60 C 938.75 253.60, 942.47 249.82, 947.47 243.43 C 952.48 237.03, 955.00 233.61, 957.89 227.61 C 960.78 221.61, 961.86 218.58, 961.92 213.43 C 961.98 208.29, 960.87 205.67, 958.19 201.88 C 955.51 198.10, 952.85 196.67, 948.52 194.50 C 944.19 192.32, 941.33 191.82, 936.53 191.01 C 931.73 190.20, 929.05 190.11, 924.54 190.44 C 920.03 190.76, 917.50 191.49, 913.99 192.62 C 910.48 193.75, 908.98 194.62, 907.00 196.08 C 905.01 197.55, 904.40 198.85, 904.07 199.94 C 903.74 201.02, 904.31 201.52, 905.34 201.50" />
    <path stroke-linecap="null" stroke-linejoin="null" stroke-dasharray="null" stroke-width="5" stroke="#000000" fill="none" d="M 1022.59,205.35 C 1023.65 205.68, 1024.83 205.55, 1027.31 205.11 C 1029.79 204.67, 1031.19 203.79, 1035.00 203.14 C 1038.81 202.49, 1041.50 202.07, 1046.35 201.85 C 1051.20 201.62, 1054.30 201.56, 1059.24 202.01 C 1064.19 202.45, 1067.08 202.94, 1071.06 204.09 C 1075.04 205.24, 1077.06 206.31, 1079.16 207.75 C 1081.25 209.18, 1081.75 209.48, 1081.54 211.26 C 1081.32 213.05, 1080.51 214.05, 1078.10 216.68 C 1075.69 219.32, 1073.64 221.43, 1069.48 224.44 C 1065.33 227.46, 1061.97 229.02, 1057.33 231.75 C 1052.69 234.48, 1049.33 235.56, 1046.27 238.10 C 1043.22 240.64, 1041.91 242.30, 1042.06 244.45 C 1042.20 246.59, 1043.53 247.55, 1046.99 248.84 C 1050.44 250.12, 1053.65 250.01, 1059.34 250.86 C 1065.02 251.71, 1069.10 251.96, 1075.42 253.09 C 1081.74 254.21, 1085.77 254.79, 1090.94 256.48 C 1096.12 258.17, 1098.63 259.52, 1101.29 261.55 C 1103.96 263.58, 1104.38 264.39, 1104.25 266.61 C 1104.13 268.83, 1103.48 269.86, 1100.67 272.64 C 1097.86 275.41, 1095.22 277.23, 1090.21 280.49 C 1085.19 283.76, 1081.64 285.81, 1075.59 288.96 C 1069.54 292.12, 1065.60 293.76, 1059.95 296.26 C 1054.30 298.76, 1051.34 299.87, 1047.34 301.48 C 1043.35 303.09, 1041.37 303.47, 1039.99 304.32 C 1038.61 305.18, 1038.80 305.86, 1040.45 305.76 C 1042.09 305.65, 1044.11 305.23, 1048.22 303.79 C 1052.32 302.34, 1055.25 301.06, 1060.96 298.53 C 1066.66 296.01, 1070.58 294.32, 1076.73 291.17 C 1082.87 288.02, 1086.47 286.09, 1091.68 282.80 C 1096.90 279.51, 1099.71 277.96, 1102.81 274.74 C 1105.90 271.52, 1107.08 269.80, 1107.14 266.71 C 1107.20 263.62, 1106.17 261.85, 1103.10 259.29 C 1100.03 256.73, 1097.22 255.70, 1091.79 253.91 C 1086.35 252.12, 1082.32 251.56, 1075.93 250.35 C 1069.53 249.13, 1065.41 248.77, 1059.81 247.84 C 1054.21 246.91, 1051.09 246.40, 1047.92 245.71 C 1044.74 245.03, 1043.86 245.38, 1043.94 244.41 C 1044.02 243.43, 1045.30 242.80, 1048.30 240.83 C 1051.31 238.86, 1054.37 237.30, 1058.99 234.56 C 1063.61 231.82, 1067.07 230.25, 1071.42 227.13 C 1075.77 224.02, 1078.12 222.13, 1080.75 219.00 C 1083.37 215.87, 1084.44 214.30, 1084.56 211.48 C 1084.68 208.66, 1083.87 207.01, 1081.35 204.90 C 1078.83 202.79, 1076.32 202.12, 1071.96 200.92 C 1067.60 199.71, 1064.68 199.37, 1059.54 198.87 C 1054.40 198.36, 1051.28 198.34, 1046.25 198.39 C 1041.23 198.43, 1038.41 198.60, 1034.40 199.10 C 1030.39 199.61, 1028.68 200.04, 1026.20 200.92 C 1023.72 201.79, 1022.72 202.57, 1022.00 203.46 C 1021.28 204.35, 1021.53 205.02, 1022.59 205.35" />
  </g>

</svg>